<?xml version="1.0" standalone="no"?>
<!DOCTYPE svg PUBLIC "-//W3C//DTD SVG 20010904//EN"
 "http://www.w3.org/TR/2001/REC-SVG-20010904/DTD/svg10.dtd">
<svg version="1.0" xmlns="http://www.w3.org/2000/svg"
 width="512.000000pt" height="512.000000pt" viewBox="0 0 512.000000 512.000000"
 preserveAspectRatio="xMidYMid meet">
<metadata>
Created by potrace 1.14, written by Peter Selinger 2001-2017
</metadata>
<g transform="translate(0.000000,512.000000) scale(0.100000,-0.100000)"
fill="#000000" stroke="none">
<path d="M650 4690 c-5 -3 -10 -28 -12 -55 -2 -28 -7 -49 -13 -48 -18 2 -63
-30 -77 -55 -10 -20 -13 -130 -13 -536 0 -495 1 -512 20 -538 11 -16 34 -32
50 -36 l30 -8 3 -1387 2 -1387 -105 0 c-58 0 -105 -3 -106 -7 0 -5 -1 -50 -2
-101 -2 -75 1 -95 13 -101 12 -5 457 -7 596 -2 l31 1 0 105 0 105 -107 0 -106
0 0 1385 0 1385 115 1 c64 0 477 0 918 0 l803 1 32 22 c18 12 38 35 43 52 15
47 12 1013 -4 1042 -6 12 -24 30 -38 40 -25 16 -88 17 -908 19 -484 1 -899 2
-923 2 -39 1 -42 3 -41 29 5 81 10 77 -97 77 -53 0 -100 -2 -104 -5z"/>
<path d="M1905 3294 c-58 -20 -109 -68 -132 -123 -8 -20 -21 -49 -29 -66 -7
-16 -59 -145 -115 -285 -96 -244 -110 -276 -144 -354 -8 -19 -15 -40 -15 -48
-1 -32 -27 -48 -76 -48 -43 1 -47 2 -28 13 42 24 11 161 -42 186 -40 18 -113
13 -162 -10 -75 -37 -115 -127 -83 -187 12 -23 81 -57 131 -66 19 -3 70 -9
113 -13 42 -3 77 -9 77 -12 0 -4 -9 -18 -20 -31 -63 -80 -261 -362 -279 -398
-32 -63 -36 -127 -35 -537 1 -364 1 -371 24 -415 36 -72 67 -107 120 -137 l49
-28 -1 -91 c0 -66 4 -101 16 -126 40 -85 72 -94 327 -93 228 1 242 5 292 67
28 35 30 42 31 133 1 52 3 95 6 96 3 0 431 1 953 2 625 1 947 -1 948 -8 0 -5
2 -46 3 -90 4 -113 40 -173 116 -192 19 -5 125 -8 235 -8 219 2 244 7 283 62
27 39 37 85 37 173 l-1 75 47 27 c54 32 89 72 121 144 21 48 22 59 22 443 1
289 -2 407 -12 444 -14 57 -53 117 -216 337 -63 85 -114 155 -113 156 1 1 41
4 88 7 106 8 213 40 234 70 23 33 19 96 -10 139 -44 65 -152 98 -224 68 -37
-15 -61 -64 -64 -131 -2 -49 0 -54 23 -60 16 -5 4 -7 -35 -6 l-59 2 -157 395
c-86 217 -169 414 -184 438 -15 24 -47 54 -73 70 l-47 27 -953 1 c-718 0 -961
-3 -987 -12z"/>
</g>
</svg>
